<svg xmlns="http://www.w3.org/2000/svg" xmlns:xlink="http://www.w3.org/1999/xlink" width="535.805" height="446.305" viewBox="0 0 535.805 446.305">
  <defs>
    <radialGradient id="radial-gradient" cx="0.5" cy="0.5" r="0.707" gradientUnits="objectBoundingBox">
      <stop offset="0.011" stop-color="#25bfec"/>
      <stop offset="0.045" stop-color="#23b4e1"/>
      <stop offset="0.219" stop-color="#1e82af"/>
      <stop offset="0.39" stop-color="#1a5986"/>
      <stop offset="0.557" stop-color="#173a66"/>
      <stop offset="0.717" stop-color="#14234f"/>
      <stop offset="0.868" stop-color="#131541"/>
      <stop offset="1" stop-color="#13113d"/>
    </radialGradient>
    <radialGradient id="radial-gradient-2" cx="0.5" cy="0.5" r="0.707" gradientUnits="objectBoundingBox">
      <stop offset="0.011" stop-color="#d4088c"/>
      <stop offset="0.096" stop-color="#b70980"/>
      <stop offset="0.26" stop-color="#850b6b"/>
      <stop offset="0.422" stop-color="#5c0d5b"/>
      <stop offset="0.58" stop-color="#3c0f4d"/>
      <stop offset="0.732" stop-color="#251044"/>
      <stop offset="0.875" stop-color="#17103e"/>
      <stop offset="1" stop-color="#13113d"/>
    </radialGradient>
    <linearGradient id="linear-gradient" x1="0.5" x2="0.5" y2="1" gradientUnits="objectBoundingBox">
      <stop offset="0" stop-color="#bd1ff6"/>
      <stop offset="0.498" stop-color="#4181ef"/>
      <stop offset="1" stop-color="#46ebed"/>
    </linearGradient>
    <linearGradient id="linear-gradient-2" x1="0.5" x2="0.5" y2="1" gradientUnits="objectBoundingBox">
      <stop offset="0" stop-color="#bd1ff6"/>
      <stop offset="0.485" stop-color="#4181ef"/>
      <stop offset="1" stop-color="#46ebed"/>
    </linearGradient>
    <linearGradient id="linear-gradient-3" x1="0.349" y1="0.12" x2="0.743" y2="0.992" gradientUnits="objectBoundingBox">
      <stop offset="0" stop-color="#a31fa9"/>
      <stop offset="0.067" stop-color="#8a16a0"/>
      <stop offset="0.149" stop-color="#740f98"/>
      <stop offset="0.239" stop-color="#640a92"/>
      <stop offset="0.341" stop-color="#5a068f"/>
      <stop offset="0.478" stop-color="#58068e"/>
      <stop offset="0.626" stop-color="#4d21a3"/>
      <stop offset="0.944" stop-color="#3167d9"/>
      <stop offset="1" stop-color="#2c75e4"/>
    </linearGradient>
    <linearGradient id="linear-gradient-4" x1="-0.438" y1="-0.018" x2="1.286" y2="0.832" xlink:href="#linear-gradient-3"/>
    <linearGradient id="linear-gradient-5" x1="0.5" y1="1" x2="0.5" gradientUnits="objectBoundingBox">
      <stop offset="0.011" stop-color="#70e8fc"/>
      <stop offset="0.148" stop-color="#5ab5ce"/>
      <stop offset="0.303" stop-color="#4483a2"/>
      <stop offset="0.456" stop-color="#325a7e"/>
      <stop offset="0.605" stop-color="#243a61"/>
      <stop offset="0.747" stop-color="#1b234d"/>
      <stop offset="0.882" stop-color="#151541"/>
      <stop offset="1" stop-color="#13113d"/>
    </linearGradient>
  </defs>
  <g id="cloud" transform="translate(380.913 19.26)">
    <g id="Group_3661" data-name="Group 3661" transform="translate(-374.913 131.725)" opacity="0.56" style="mix-blend-mode: normal;isolation: isolate">
      <g id="Group_3663" data-name="Group 3663">
        <path id="Path_23012" data-name="Path 23012" d="M285.68,163.175a6.267,6.267,0,0,0,3.065-.775l6.831-3.943a2.513,2.513,0,0,0,1.461-2.044,1.942,1.942,0,0,0-1.1-1.662L262.887,135.67a6.009,6.009,0,0,0-5.481.208l-6.831,3.944a2.518,2.518,0,0,0-1.461,2.043,1.943,1.943,0,0,0,1.1,1.663l33.048,19.081A4.911,4.911,0,0,0,285.68,163.175Zm9.427-5.53-6.831,3.943a5.139,5.139,0,0,1-4.542.208l-33.049-19.08a1.079,1.079,0,0,1-.633-.851c0-.412.371-.872.992-1.23l6.831-3.945a5.144,5.144,0,0,1,4.543-.207l33.049,19.081a1.075,1.075,0,0,1,.632.85c0,.411-.371.872-.992,1.231Z" transform="translate(29.279 -70.02)" fill="#46ebed"/>
        <path id="Path_23013" data-name="Path 23013" d="M281.719,210.775a6.259,6.259,0,0,0,3.064-.773l4.233-2.444a2.516,2.516,0,0,0,1.462-2.044,1.943,1.943,0,0,0-1.1-1.662l-16.784-9.691a6.009,6.009,0,0,0-5.481.208l-4.233,2.444a2.515,2.515,0,0,0-1.462,2.043,1.943,1.943,0,0,0,1.1,1.663l16.784,9.69A4.9,4.9,0,0,0,281.719,210.775Zm-11.531-16.237a3.956,3.956,0,0,1,1.935.436l16.784,9.69a1.077,1.077,0,0,1,.633.851c0,.411-.371.872-.993,1.23l-4.233,2.445a5.144,5.144,0,0,1-4.543.207l-16.784-9.691a1.077,1.077,0,0,1-.633-.851c0-.411.371-.871.993-1.23l4.233-2.443A5.384,5.384,0,0,1,270.188,194.538Z" transform="translate(23.536 -70.02)" fill="#46ebed"/>
        <path id="Path_23014" data-name="Path 23014" d="M253.329,227.693a5.562,5.562,0,0,0,2.734-.665l90.689-52.359a1.981,1.981,0,0,0,0-3.7l-86.416-49.893a5.96,5.96,0,0,0-5.467,0l-53.72,31.015a1.981,1.981,0,0,0,0,3.7l16.359,9.445a1.072,1.072,0,0,1,0,2.074l-31.972,18.459a5.1,5.1,0,0,1-4.53,0L145.14,165.061a1.072,1.072,0,0,1,0-2.074L303.608,71.5a5.09,5.09,0,0,1,4.53,0l88.8,51.268a1.071,1.071,0,0,1,0,2.073l-22.147,12.787.469.813L397.4,125.649a1.981,1.981,0,0,0,0-3.7l-88.8-51.267a5.961,5.961,0,0,0-5.467,0L144.672,162.175a1.98,1.98,0,0,0,0,3.7l35.866,20.708a5.962,5.962,0,0,0,5.468,0l31.971-18.459a1.981,1.981,0,0,0,0-3.7l-16.358-9.445a1.072,1.072,0,0,1,0-2.074l53.719-31.014a5.09,5.09,0,0,1,4.53,0l86.416,49.892a1.071,1.071,0,0,1,0,2.073l-90.689,52.36a5.09,5.09,0,0,1-4.53,0L205.97,200.18a1.072,1.072,0,0,1,0-2.074l52.269-30.177a5.09,5.09,0,0,1,4.53,0l22.873,13.206.469-.813-22.873-13.206a5.966,5.966,0,0,0-5.468,0L205.5,197.294a1.981,1.981,0,0,0,0,3.7l45.1,26.036A5.56,5.56,0,0,0,253.329,227.693Z" transform="translate(33.355 -70.02)" fill="#46ebed"/>
        <path id="Path_23015" data-name="Path 23015" d="M244.482,137.98a5.561,5.561,0,0,0,2.734-.664l10.528-6.078-54.93-31.714a5.966,5.966,0,0,0-5.467,0l-7.325,4.229a1.982,1.982,0,0,0,0,3.7h0l51.726,29.864A5.564,5.564,0,0,0,244.482,137.98Zm11.386-6.742-9.12,5.266a5.092,5.092,0,0,1-4.531,0L190.491,106.64a1.072,1.072,0,0,1,0-2.075l7.324-4.228a5.092,5.092,0,0,1,4.531,0Z" transform="translate(128.934 -70.02)" fill="#46ebed"/>
        <path id="Path_23016" data-name="Path 23016" d="M145.793,259.808a5.571,5.571,0,0,0,2.733-.664l122.222-70.566a1.98,1.98,0,0,0,0-3.7L200.5,144.32l-.469.813,70.251,40.56a1.071,1.071,0,0,1,0,2.073L148.058,258.331a5.09,5.09,0,0,1-4.53,0L129.2,250.056a1.071,1.071,0,0,1,0-2.073l19.165-11.066a5.09,5.09,0,0,1,4.53,0l6.841,3.95a5.963,5.963,0,0,0,5.468,0L251.78,190.88a1.981,1.981,0,0,0,0-3.7l-5.875-3.393a5.963,5.963,0,0,0-5.468,0L163.28,228.336a5.09,5.09,0,0,1-4.53,0l-15.3-8.833a5.963,5.963,0,0,0-5.468,0l-31.088,17.949.469.813,31.088-17.95a5.09,5.09,0,0,1,4.53,0l15.3,8.833a5.961,5.961,0,0,0,5.467,0L240.906,184.6a5.092,5.092,0,0,1,4.531,0l5.875,3.392a1.072,1.072,0,0,1,0,2.074L164.73,240.055a5.09,5.09,0,0,1-4.53,0l-6.841-3.95a5.963,5.963,0,0,0-5.468,0L128.727,247.17a1.981,1.981,0,0,0,0,3.7l14.332,8.276A5.572,5.572,0,0,0,145.793,259.808Z" transform="translate(196.516 -70.02)" fill="#46ebed"/>
        <path id="Path_23017" data-name="Path 23017" d="M168.463,218.81a6.266,6.266,0,0,0,3.064-.774l60.111-34.705a2.515,2.515,0,0,0,1.462-2.044,1.943,1.943,0,0,0-1.1-1.662l-14.225-8.213a6.007,6.007,0,0,0-5.48.208l-60.112,34.705a2.515,2.515,0,0,0-1.462,2.044,1.943,1.943,0,0,0,1.1,1.662l14.225,8.213A4.915,4.915,0,0,0,168.463,218.81Zm62.707-36.291-60.112,34.705a5.154,5.154,0,0,1-4.543.208l-14.225-8.213a1.081,1.081,0,0,1-.633-.851c0-.411.372-.872.993-1.23l60.111-34.705a5.131,5.131,0,0,1,4.543-.208l14.225,8.213a1.081,1.081,0,0,1,.633.85c0,.411-.371.872-.992,1.231Z" transform="translate(191.611 -70.02)" fill="#46ebed"/>
        <path id="Path_23018" data-name="Path 23018" d="M131.033,181.36a5.56,5.56,0,0,0,2.733-.664l23.877-13.785a1.982,1.982,0,0,0,0-3.7L98.358,128.984l-.469.812,59.286,34.228a1.073,1.073,0,0,1,0,2.075L133.3,179.884a5.09,5.09,0,0,1-4.53,0l-55.1-31.81a1.071,1.071,0,0,1,0-2.073l9.439-5.449a5.09,5.09,0,0,1,4.53,0l38.58,22.273.469-.812-38.58-22.274a5.966,5.966,0,0,0-5.468,0l-9.439,5.45a1.981,1.981,0,0,0,0,3.7L128.3,180.7A5.561,5.561,0,0,0,131.033,181.36Z" transform="translate(344.583 -70.02)" fill="#46ebed"/>
        <path id="Path_23019" data-name="Path 23019" d="M312.78,203.9a6.262,6.262,0,0,0,3.064-.773l4.234-2.444a2.517,2.517,0,0,0,1.461-2.043,1.941,1.941,0,0,0-1.1-1.663l-4.954-2.86a6,6,0,0,0-5.48.208l-4.234,2.444a2.513,2.513,0,0,0-1.461,2.044,1.943,1.943,0,0,0,1.1,1.662l4.953,2.86A4.911,4.911,0,0,0,312.78,203.9Zm.3-9.406a3.958,3.958,0,0,1,1.935.436l4.954,2.859a1.078,1.078,0,0,1,.632.851c0,.412-.371.872-.992,1.23l-4.234,2.445a5.15,5.15,0,0,1-4.543.208l-4.953-2.861a1.077,1.077,0,0,1-.632-.85c0-.412.371-.872.992-1.231l4.234-2.443A5.38,5.38,0,0,1,313.08,194.493Z" transform="translate(-50.418 -70.02)" fill="#46ebed"/>
        <path id="Path_23020" data-name="Path 23020" d="M297.288,194.955a6.259,6.259,0,0,0,3.064-.773l4.234-2.445a2.517,2.517,0,0,0,1.462-2.043,1.943,1.943,0,0,0-1.1-1.663l-4.954-2.859a6.006,6.006,0,0,0-5.48.208l-4.234,2.444a2.515,2.515,0,0,0-1.462,2.042,1.944,1.944,0,0,0,1.1,1.663l4.953,2.861A4.911,4.911,0,0,0,297.288,194.955Zm.3-9.406a3.97,3.97,0,0,1,1.935.436l4.954,2.859a1.081,1.081,0,0,1,.633.85c0,.412-.372.872-.993,1.231l-4.233,2.444a5.147,5.147,0,0,1-4.543.208l-4.954-2.86a1.076,1.076,0,0,1-.632-.851c0-.411.371-.871.992-1.229l4.233-2.444A5.384,5.384,0,0,1,297.588,185.549Z" transform="translate(-19.434 -70.02)" fill="#46ebed"/>
        <path id="Path_23021" data-name="Path 23021" d="M281.8,186.012a6.261,6.261,0,0,0,3.064-.775l4.234-2.444a2.512,2.512,0,0,0,1.461-2.042,1.943,1.943,0,0,0-1.1-1.663l-4.953-2.86a6,6,0,0,0-5.48.208l-4.234,2.444a2.517,2.517,0,0,0-1.462,2.043,1.943,1.943,0,0,0,1.1,1.663l4.954,2.859A4.9,4.9,0,0,0,281.8,186.012Zm.3-9.407a3.967,3.967,0,0,1,1.935.435l4.954,2.86a1.081,1.081,0,0,1,.632.851c0,.411-.371.871-.992,1.229l-4.234,2.445a5.14,5.14,0,0,1-4.543.208l-4.953-2.86a1.081,1.081,0,0,1-.633-.85c0-.412.372-.872.993-1.23l4.233-2.445A5.394,5.394,0,0,1,282.1,176.6Z" transform="translate(11.549 -70.02)" fill="#46ebed"/>
        <path id="Path_23022" data-name="Path 23022" d="M297.211,212.889a6.252,6.252,0,0,0,3.064-.774l4.233-2.444a2.515,2.515,0,0,0,1.462-2.043,1.943,1.943,0,0,0-1.1-1.663l-4.954-2.86a6,6,0,0,0-5.48.208l-4.234,2.444a2.517,2.517,0,0,0-1.462,2.044,1.943,1.943,0,0,0,1.1,1.662l4.953,2.86A4.918,4.918,0,0,0,297.211,212.889Zm.3-9.406a3.953,3.953,0,0,1,1.935.435l4.954,2.859a1.08,1.08,0,0,1,.633.851c0,.412-.371.872-.992,1.231l-4.234,2.444a5.15,5.15,0,0,1-4.543.208l-4.953-2.861a1.075,1.075,0,0,1-.632-.849c0-.412.371-.873.992-1.232l4.233-2.444A5.392,5.392,0,0,1,297.51,203.483Z" transform="translate(-19.279 -70.02)" fill="#46ebed"/>
        <path id="Path_23023" data-name="Path 23023" d="M266.227,195a6.265,6.265,0,0,0,3.064-.773l4.233-2.445a2.515,2.515,0,0,0,1.462-2.043,1.943,1.943,0,0,0-1.1-1.663l-4.954-2.859a6.006,6.006,0,0,0-5.481.208l-4.233,2.443a2.515,2.515,0,0,0-1.462,2.044,1.941,1.941,0,0,0,1.1,1.662l4.953,2.861A4.917,4.917,0,0,0,266.227,195Zm.3-9.406a3.952,3.952,0,0,1,1.934.435l4.954,2.86a1.079,1.079,0,0,1,.633.85c0,.412-.371.872-.992,1.231l-4.234,2.444a5.147,5.147,0,0,1-4.543.208l-4.953-2.86a1.076,1.076,0,0,1-.633-.851c0-.411.371-.872.992-1.23l4.234-2.444A5.391,5.391,0,0,1,266.527,185.594Z" transform="translate(42.689 -70.02)" fill="#46ebed"/>
        <path id="Path_23024" data-name="Path 23024" d="M371.207,257.045a6.267,6.267,0,0,0,3.063-.774L406.6,237.606a2.515,2.515,0,0,0,1.462-2.043,1.943,1.943,0,0,0-1.1-1.663l-7.551-4.359a6,6,0,0,0-5.48.207L361.6,248.413a2.517,2.517,0,0,0-1.462,2.043,1.944,1.944,0,0,0,1.1,1.663l7.551,4.36A4.907,4.907,0,0,0,371.207,257.045ZM397,229.918a3.963,3.963,0,0,1,1.936.436l7.551,4.359a1.077,1.077,0,0,1,.633.851c0,.411-.371.872-.992,1.23L373.8,255.458a5.147,5.147,0,0,1-4.543.208l-7.551-4.359a1.078,1.078,0,0,1-.632-.851c0-.412.371-.872.992-1.23l32.327-18.665A5.393,5.393,0,0,1,397,229.918Z" transform="translate(-192.767 -70.02)" fill="#46ebed"/>
        <path id="Path_23025" data-name="Path 23025" d="M469.917,249.941a6.264,6.264,0,0,0,3.064-.775l16.064-9.274a2.517,2.517,0,0,0,1.462-2.043,1.943,1.943,0,0,0-1.1-1.663l-4.954-2.86a6,6,0,0,0-5.48.208l-16.064,9.275a2.515,2.515,0,0,0-1.462,2.043,1.943,1.943,0,0,0,1.1,1.663l4.954,2.859A4.9,4.9,0,0,0,469.917,249.941ZM482.048,233.7a3.957,3.957,0,0,1,1.934.436L488.936,237a1.076,1.076,0,0,1,.632.851c0,.412-.371.872-.992,1.23l-16.063,9.275a5.134,5.134,0,0,1-4.543.208l-4.954-2.86a1.076,1.076,0,0,1-.632-.85c0-.412.371-.872.992-1.231l16.063-9.274A5.39,5.39,0,0,1,482.048,233.7Z" transform="translate(-376.522 -70.02)" fill="#46ebed"/>
        <path id="Path_23026" data-name="Path 23026" d="M427.008,318.08a5.56,5.56,0,0,0,2.733-.664l88.8-51.267a1.981,1.981,0,0,0,0-3.7L360.065,170.957a5.963,5.963,0,0,0-5.468,0l-35.865,20.707a1.981,1.981,0,0,0,0,3.7L350.7,213.822a5.961,5.961,0,0,0,5.467,0l16.358-9.444a5.089,5.089,0,0,1,4.531,0l53.719,31.016a1.071,1.071,0,0,1,0,2.073l-86.413,49.891a5.1,5.1,0,0,1-4.53,0L249.145,235a1.072,1.072,0,0,1,0-2.074l45.093-26.034a5.089,5.089,0,0,1,4.531,0l52.27,30.178a1.072,1.072,0,0,1,0,2.074l-22.872,13.2.469.812,22.872-13.205a1.982,1.982,0,0,0,0-3.7l-52.271-30.178a5.963,5.963,0,0,0-5.467,0L248.676,232.11a1.982,1.982,0,0,0,0,3.7l90.691,52.36a5.963,5.963,0,0,0,5.468,0l86.413-49.891a1.98,1.98,0,0,0,0-3.7l-53.72-31.016a5.967,5.967,0,0,0-5.467,0L355.7,213.01a5.088,5.088,0,0,1-4.529,0L319.2,194.551a1.072,1.072,0,0,1,0-2.074l35.866-20.707a5.09,5.09,0,0,1,4.53,0l158.472,91.494a1.071,1.071,0,0,1,0,2.073l-88.8,51.267a5.1,5.1,0,0,1-4.531,0L402.6,303.817l-.469.812,22.148,12.787A5.563,5.563,0,0,0,427.008,318.08Z" transform="translate(-191.783 -70.02)" fill="#46ebed"/>
        <path id="Path_23027" data-name="Path 23027" d="M308.69,291.694l.711-.411,53.747-31.031a1.981,1.981,0,0,0,0-3.7l-7.325-4.229a5.967,5.967,0,0,0-5.467,0l-51.725,29.864a1.981,1.981,0,0,0,0,3.7Zm44.4-39.089a4.646,4.646,0,0,1,2.265.533l7.325,4.228a1.072,1.072,0,0,1,0,2.074L308.69,290.61l-9.591-5.536a1.072,1.072,0,0,1,0-2.073l51.726-29.863A4.639,4.639,0,0,1,353.089,252.6Z" transform="translate(-86.349 -70.02)" fill="#46ebed"/>
        <path id="Path_23028" data-name="Path 23028" d="M502.448,339.154a5.56,5.56,0,0,0,2.733-.664l70.249-40.558-.468-.813-70.249,40.559a5.09,5.09,0,0,1-4.53,0L377.957,267.11a1.071,1.071,0,0,1,0-2.073l14.332-8.274a5.087,5.087,0,0,1,4.53,0l19.166,11.064a1.072,1.072,0,0,1,0,2.074l-6.842,3.95a1.982,1.982,0,0,0,0,3.7l86.584,49.989a5.96,5.96,0,0,0,5.467,0l5.875-3.392a1.982,1.982,0,0,0,0-3.7L429.91,275.9a1.071,1.071,0,0,1,0-2.073l15.3-8.833a1.981,1.981,0,0,0,0-3.7L414.12,243.347l-.469.812,31.088,17.95a1.071,1.071,0,0,1,0,2.073l-15.3,8.833a1.981,1.981,0,0,0,0,3.7L506.6,321.261a1.071,1.071,0,0,1,0,2.073l-5.875,3.393a5.088,5.088,0,0,1-4.529,0l-86.584-49.99a1.072,1.072,0,0,1,0-2.074l6.842-3.949a1.982,1.982,0,0,0,0-3.7L397.288,255.95a5.969,5.969,0,0,0-5.468,0l-14.332,8.275a1.981,1.981,0,0,0,0,3.7L499.714,338.49A5.563,5.563,0,0,0,502.448,339.154Z" transform="translate(-376.218 -70.02)" fill="#46ebed"/>
        <path id="Path_23029" data-name="Path 23029" d="M486.392,313.853a6.266,6.266,0,0,0,3.064-.775l13.5-7.8a2.515,2.515,0,0,0,1.462-2.044,1.943,1.943,0,0,0-1.1-1.662l-60.833-35.122a6.01,6.01,0,0,0-5.48.208l-13.505,7.8a2.515,2.515,0,0,0-1.462,2.043,1.944,1.944,0,0,0,1.1,1.663l60.833,35.122A4.9,4.9,0,0,0,486.392,313.853Zm-46.309-47.022a3.971,3.971,0,0,1,1.936.435l60.833,35.122a1.077,1.077,0,0,1,.632.849c0,.412-.372.873-.993,1.232l-13.5,7.8a5.144,5.144,0,0,1-4.543.208l-60.833-35.122a1.079,1.079,0,0,1-.632-.851c0-.412.371-.872.992-1.23l13.505-7.8A5.39,5.39,0,0,1,440.083,266.831Z" transform="translate(-351.032 -70.02)" fill="#46ebed"/>
        <path id="Path_23030" data-name="Path 23030" d="M377.534,359.34a5.574,5.574,0,0,0,2.734-.664l59.284-34.228-.469-.812L379.8,357.863a5.093,5.093,0,0,1-4.53,0l-23.877-13.785a1.072,1.072,0,0,1,0-2.074L406.484,310.2a5.085,5.085,0,0,1,4.531,0l9.439,5.451a1.071,1.071,0,0,1,0,2.073l-38.579,22.273.469.813,38.579-22.274a1.982,1.982,0,0,0,0-3.7l-9.44-5.45a5.96,5.96,0,0,0-5.467,0l-55.093,31.808a1.981,1.981,0,0,0,0,3.7L374.8,358.676A5.574,5.574,0,0,0,377.534,359.34Z" transform="translate(-213.774 -70.02)" fill="#46ebed"/>
        <path id="Path_23031" data-name="Path 23031" d="M469.84,225.177a6.268,6.268,0,0,0,3.065-.775l4.233-2.444a2.513,2.513,0,0,0,1.462-2.042,1.944,1.944,0,0,0-1.1-1.663l-4.953-2.86a6,6,0,0,0-5.48.208l-4.234,2.444a2.517,2.517,0,0,0-1.462,2.043,1.943,1.943,0,0,0,1.1,1.663l4.954,2.859A4.9,4.9,0,0,0,469.84,225.177Zm.3-9.406a3.967,3.967,0,0,1,1.935.434l4.954,2.86a1.079,1.079,0,0,1,.632.851c0,.411-.371.871-.992,1.23l-4.233,2.444a5.131,5.131,0,0,1-4.543.208l-4.954-2.859a1.08,1.08,0,0,1-.632-.851c0-.412.371-.872.992-1.23l4.234-2.445A5.39,5.39,0,0,1,470.14,215.771Z" transform="translate(-364.538 -70.02)" fill="#46ebed"/>
        <path id="Path_23032" data-name="Path 23032" d="M454.347,234.121a6.277,6.277,0,0,0,3.065-.773l4.233-2.445a2.515,2.515,0,0,0,1.462-2.043,1.944,1.944,0,0,0-1.1-1.663l-4.954-2.86a6.01,6.01,0,0,0-5.48.208l-4.233,2.444a2.516,2.516,0,0,0-1.462,2.043,1.943,1.943,0,0,0,1.1,1.663l4.953,2.86A4.906,4.906,0,0,0,454.347,234.121Zm.3-9.407a3.982,3.982,0,0,1,1.936.435l4.953,2.861a1.077,1.077,0,0,1,.633.85c0,.412-.371.873-.993,1.231l-4.233,2.444a5.14,5.14,0,0,1-4.543.207l-4.953-2.859a1.079,1.079,0,0,1-.633-.851c0-.412.371-.872.992-1.23l4.234-2.444A5.38,5.38,0,0,1,454.647,224.714Z" transform="translate(-333.553 -70.02)" fill="#46ebed"/>
        <path id="Path_23033" data-name="Path 23033" d="M438.856,243.066a6.263,6.263,0,0,0,3.064-.774l4.233-2.444a2.515,2.515,0,0,0,1.462-2.044,1.942,1.942,0,0,0-1.1-1.662l-4.954-2.861a6,6,0,0,0-5.481.208l-4.233,2.445a2.515,2.515,0,0,0-1.462,2.044,1.941,1.941,0,0,0,1.1,1.662l4.953,2.859A4.91,4.91,0,0,0,438.856,243.066Zm.3-9.408a3.971,3.971,0,0,1,1.936.436l4.954,2.86a1.077,1.077,0,0,1,.632.85c0,.412-.371.873-.992,1.231l-4.234,2.445a5.143,5.143,0,0,1-4.543.207l-4.953-2.86a1.077,1.077,0,0,1-.633-.85c0-.411.371-.872.992-1.231l4.234-2.444A5.38,5.38,0,0,1,439.155,233.658Z" transform="translate(-302.569 -70.02)" fill="#46ebed"/>
        <path id="Path_23034" data-name="Path 23034" d="M485.409,234.166a6.274,6.274,0,0,0,3.064-.774l4.234-2.445a2.517,2.517,0,0,0,1.462-2.043,1.944,1.944,0,0,0-1.1-1.663l-4.953-2.859a6,6,0,0,0-5.481.207l-4.233,2.444a2.516,2.516,0,0,0-1.462,2.044,1.942,1.942,0,0,0,1.1,1.662l4.953,2.861A4.9,4.9,0,0,0,485.409,234.166Zm.3-9.407a3.963,3.963,0,0,1,1.936.435l4.953,2.86a1.079,1.079,0,0,1,.633.85c0,.413-.371.872-.992,1.231L488,232.579a5.139,5.139,0,0,1-4.542.208l-4.954-2.86a1.076,1.076,0,0,1-.632-.851c0-.411.371-.872.992-1.23L483.1,225.4A5.4,5.4,0,0,1,485.708,224.759Z" transform="translate(-395.676 -70.02)" fill="#46ebed"/>
        <path id="Path_23035" data-name="Path 23035" d="M454.424,252.054a6.264,6.264,0,0,0,3.065-.774l4.233-2.444a2.512,2.512,0,0,0,1.462-2.042,1.945,1.945,0,0,0-1.1-1.664l-4.954-2.859a6,6,0,0,0-5.48.208l-4.234,2.444a2.515,2.515,0,0,0-1.461,2.043,1.943,1.943,0,0,0,1.1,1.663l4.953,2.859A4.914,4.914,0,0,0,454.424,252.054Zm.3-9.407a3.974,3.974,0,0,1,1.936.436l4.954,2.86a1.077,1.077,0,0,1,.631.851c0,.411-.371.871-.992,1.229l-4.233,2.445a5.147,5.147,0,0,1-4.543.208l-4.953-2.859a1.081,1.081,0,0,1-.632-.851c0-.412.37-.872.991-1.231l4.234-2.444A5.38,5.38,0,0,1,454.724,242.647Z" transform="translate(-333.707 -70.02)" fill="#46ebed"/>
      </g>
      <g id="Group_3662" data-name="Group 3662">
        <path id="Path_22988" data-name="Path 22988" d="M285.68,163.175a6.267,6.267,0,0,0,3.065-.775l6.831-3.943a2.513,2.513,0,0,0,1.461-2.044,1.942,1.942,0,0,0-1.1-1.662L262.887,135.67a6.009,6.009,0,0,0-5.481.208l-6.831,3.944a2.518,2.518,0,0,0-1.461,2.043,1.943,1.943,0,0,0,1.1,1.663l33.048,19.081A4.911,4.911,0,0,0,285.68,163.175Zm9.427-5.53-6.831,3.943a5.139,5.139,0,0,1-4.542.208l-33.049-19.08a1.079,1.079,0,0,1-.633-.851c0-.412.371-.872.992-1.23l6.831-3.945a5.144,5.144,0,0,1,4.543-.207l33.049,19.081a1.075,1.075,0,0,1,.632.85c0,.411-.371.872-.992,1.231Z" transform="translate(29.279 -70.02)" fill="#46ebed"/>
        <path id="Path_22989" data-name="Path 22989" d="M281.719,210.775a6.259,6.259,0,0,0,3.064-.773l4.233-2.444a2.516,2.516,0,0,0,1.462-2.044,1.943,1.943,0,0,0-1.1-1.662l-16.784-9.691a6.009,6.009,0,0,0-5.481.208l-4.233,2.444a2.515,2.515,0,0,0-1.462,2.043,1.943,1.943,0,0,0,1.1,1.663l16.784,9.69A4.9,4.9,0,0,0,281.719,210.775Zm-11.531-16.237a3.956,3.956,0,0,1,1.935.436l16.784,9.69a1.077,1.077,0,0,1,.633.851c0,.411-.371.872-.993,1.23l-4.233,2.445a5.144,5.144,0,0,1-4.543.207l-16.784-9.691a1.077,1.077,0,0,1-.633-.851c0-.411.371-.871.993-1.23l4.233-2.443A5.384,5.384,0,0,1,270.188,194.538Z" transform="translate(23.536 -70.02)" fill="#46ebed"/>
        <path id="Path_22990" data-name="Path 22990" d="M253.329,227.693a5.562,5.562,0,0,0,2.734-.665l90.689-52.359a1.981,1.981,0,0,0,0-3.7l-86.416-49.893a5.96,5.96,0,0,0-5.467,0l-53.72,31.015a1.981,1.981,0,0,0,0,3.7l16.359,9.445a1.072,1.072,0,0,1,0,2.074l-31.972,18.459a5.1,5.1,0,0,1-4.53,0L145.14,165.061a1.072,1.072,0,0,1,0-2.074L303.608,71.5a5.09,5.09,0,0,1,4.53,0l88.8,51.268a1.071,1.071,0,0,1,0,2.073l-22.147,12.787.469.813L397.4,125.649a1.981,1.981,0,0,0,0-3.7l-88.8-51.267a5.961,5.961,0,0,0-5.467,0L144.672,162.175a1.98,1.98,0,0,0,0,3.7l35.866,20.708a5.962,5.962,0,0,0,5.468,0l31.971-18.459a1.981,1.981,0,0,0,0-3.7l-16.358-9.445a1.072,1.072,0,0,1,0-2.074l53.719-31.014a5.09,5.09,0,0,1,4.53,0l86.416,49.892a1.071,1.071,0,0,1,0,2.073l-90.689,52.36a5.09,5.09,0,0,1-4.53,0L205.97,200.18a1.072,1.072,0,0,1,0-2.074l52.269-30.177a5.09,5.09,0,0,1,4.53,0l22.873,13.206.469-.813-22.873-13.206a5.966,5.966,0,0,0-5.468,0L205.5,197.294a1.981,1.981,0,0,0,0,3.7l45.1,26.036A5.56,5.56,0,0,0,253.329,227.693Z" transform="translate(33.355 -70.02)" fill="#46ebed"/>
        <path id="Path_22991" data-name="Path 22991" d="M244.482,137.98a5.561,5.561,0,0,0,2.734-.664l10.528-6.078-54.93-31.714a5.966,5.966,0,0,0-5.467,0l-7.325,4.229a1.982,1.982,0,0,0,0,3.7h0l51.726,29.864A5.564,5.564,0,0,0,244.482,137.98Zm11.386-6.742-9.12,5.266a5.092,5.092,0,0,1-4.531,0L190.491,106.64a1.072,1.072,0,0,1,0-2.075l7.324-4.228a5.092,5.092,0,0,1,4.531,0Z" transform="translate(128.934 -70.02)" fill="#46ebed"/>
        <path id="Path_22992" data-name="Path 22992" d="M145.793,259.808a5.571,5.571,0,0,0,2.733-.664l122.222-70.566a1.98,1.98,0,0,0,0-3.7L200.5,144.32l-.469.813,70.251,40.56a1.071,1.071,0,0,1,0,2.073L148.058,258.331a5.09,5.09,0,0,1-4.53,0L129.2,250.056a1.071,1.071,0,0,1,0-2.073l19.165-11.066a5.09,5.09,0,0,1,4.53,0l6.841,3.95a5.963,5.963,0,0,0,5.468,0L251.78,190.88a1.981,1.981,0,0,0,0-3.7l-5.875-3.393a5.963,5.963,0,0,0-5.468,0L163.28,228.336a5.09,5.09,0,0,1-4.53,0l-15.3-8.833a5.963,5.963,0,0,0-5.468,0l-31.088,17.949.469.813,31.088-17.95a5.09,5.09,0,0,1,4.53,0l15.3,8.833a5.961,5.961,0,0,0,5.467,0L240.906,184.6a5.092,5.092,0,0,1,4.531,0l5.875,3.392a1.072,1.072,0,0,1,0,2.074L164.73,240.055a5.09,5.09,0,0,1-4.53,0l-6.841-3.95a5.963,5.963,0,0,0-5.468,0L128.727,247.17a1.981,1.981,0,0,0,0,3.7l14.332,8.276A5.572,5.572,0,0,0,145.793,259.808Z" transform="translate(196.516 -70.02)" fill="#46ebed"/>
        <path id="Path_22993" data-name="Path 22993" d="M168.463,218.81a6.266,6.266,0,0,0,3.064-.774l60.111-34.705a2.515,2.515,0,0,0,1.462-2.044,1.943,1.943,0,0,0-1.1-1.662l-14.225-8.213a6.007,6.007,0,0,0-5.48.208l-60.112,34.705a2.515,2.515,0,0,0-1.462,2.044,1.943,1.943,0,0,0,1.1,1.662l14.225,8.213A4.915,4.915,0,0,0,168.463,218.81Zm62.707-36.291-60.112,34.705a5.154,5.154,0,0,1-4.543.208l-14.225-8.213a1.081,1.081,0,0,1-.633-.851c0-.411.372-.872.993-1.23l60.111-34.705a5.131,5.131,0,0,1,4.543-.208l14.225,8.213a1.081,1.081,0,0,1,.633.85c0,.411-.371.872-.992,1.231Z" transform="translate(191.611 -70.02)" fill="#46ebed"/>
        <path id="Path_22994" data-name="Path 22994" d="M131.033,181.36a5.56,5.56,0,0,0,2.733-.664l23.877-13.785a1.982,1.982,0,0,0,0-3.7L98.358,128.984l-.469.812,59.286,34.228a1.073,1.073,0,0,1,0,2.075L133.3,179.884a5.09,5.09,0,0,1-4.53,0l-55.1-31.81a1.071,1.071,0,0,1,0-2.073l9.439-5.449a5.09,5.09,0,0,1,4.53,0l38.58,22.273.469-.812-38.58-22.274a5.966,5.966,0,0,0-5.468,0l-9.439,5.45a1.981,1.981,0,0,0,0,3.7L128.3,180.7A5.561,5.561,0,0,0,131.033,181.36Z" transform="translate(344.583 -70.02)" fill="#46ebed"/>
        <path id="Path_22995" data-name="Path 22995" d="M312.78,203.9a6.262,6.262,0,0,0,3.064-.773l4.234-2.444a2.517,2.517,0,0,0,1.461-2.043,1.941,1.941,0,0,0-1.1-1.663l-4.954-2.86a6,6,0,0,0-5.48.208l-4.234,2.444a2.513,2.513,0,0,0-1.461,2.044,1.943,1.943,0,0,0,1.1,1.662l4.953,2.86A4.911,4.911,0,0,0,312.78,203.9Zm.3-9.406a3.958,3.958,0,0,1,1.935.436l4.954,2.859a1.078,1.078,0,0,1,.632.851c0,.412-.371.872-.992,1.23l-4.234,2.445a5.15,5.15,0,0,1-4.543.208l-4.953-2.861a1.077,1.077,0,0,1-.632-.85c0-.412.371-.872.992-1.231l4.234-2.443A5.38,5.38,0,0,1,313.08,194.493Z" transform="translate(-50.418 -70.02)" fill="#46ebed"/>
        <path id="Path_22996" data-name="Path 22996" d="M297.288,194.955a6.259,6.259,0,0,0,3.064-.773l4.234-2.445a2.517,2.517,0,0,0,1.462-2.043,1.943,1.943,0,0,0-1.1-1.663l-4.954-2.859a6.006,6.006,0,0,0-5.48.208l-4.234,2.444a2.515,2.515,0,0,0-1.462,2.042,1.944,1.944,0,0,0,1.1,1.663l4.953,2.861A4.911,4.911,0,0,0,297.288,194.955Zm.3-9.406a3.97,3.97,0,0,1,1.935.436l4.954,2.859a1.081,1.081,0,0,1,.633.85c0,.412-.372.872-.993,1.231l-4.233,2.444a5.147,5.147,0,0,1-4.543.208l-4.954-2.86a1.076,1.076,0,0,1-.632-.851c0-.411.371-.871.992-1.229l4.233-2.444A5.384,5.384,0,0,1,297.588,185.549Z" transform="translate(-19.434 -70.02)" fill="#46ebed"/>
        <path id="Path_22997" data-name="Path 22997" d="M281.8,186.012a6.261,6.261,0,0,0,3.064-.775l4.234-2.444a2.512,2.512,0,0,0,1.461-2.042,1.943,1.943,0,0,0-1.1-1.663l-4.953-2.86a6,6,0,0,0-5.48.208l-4.234,2.444a2.517,2.517,0,0,0-1.462,2.043,1.943,1.943,0,0,0,1.1,1.663l4.954,2.859A4.9,4.9,0,0,0,281.8,186.012Zm.3-9.407a3.967,3.967,0,0,1,1.935.435l4.954,2.86a1.081,1.081,0,0,1,.632.851c0,.411-.371.871-.992,1.229l-4.234,2.445a5.14,5.14,0,0,1-4.543.208l-4.953-2.86a1.081,1.081,0,0,1-.633-.85c0-.412.372-.872.993-1.23l4.233-2.445A5.394,5.394,0,0,1,282.1,176.6Z" transform="translate(11.549 -70.02)" fill="#46ebed"/>
        <path id="Path_22998" data-name="Path 22998" d="M297.211,212.889a6.252,6.252,0,0,0,3.064-.774l4.233-2.444a2.515,2.515,0,0,0,1.462-2.043,1.943,1.943,0,0,0-1.1-1.663l-4.954-2.86a6,6,0,0,0-5.48.208l-4.234,2.444a2.517,2.517,0,0,0-1.462,2.044,1.943,1.943,0,0,0,1.1,1.662l4.953,2.86A4.918,4.918,0,0,0,297.211,212.889Zm.3-9.406a3.953,3.953,0,0,1,1.935.435l4.954,2.859a1.08,1.08,0,0,1,.633.851c0,.412-.371.872-.992,1.231l-4.234,2.444a5.15,5.15,0,0,1-4.543.208l-4.953-2.861a1.075,1.075,0,0,1-.632-.849c0-.412.371-.873.992-1.232l4.233-2.444A5.392,5.392,0,0,1,297.51,203.483Z" transform="translate(-19.279 -70.02)" fill="#46ebed"/>
        <path id="Path_22999" data-name="Path 22999" d="M266.227,195a6.265,6.265,0,0,0,3.064-.773l4.233-2.445a2.515,2.515,0,0,0,1.462-2.043,1.943,1.943,0,0,0-1.1-1.663l-4.954-2.859a6.006,6.006,0,0,0-5.481.208l-4.233,2.443a2.515,2.515,0,0,0-1.462,2.044,1.941,1.941,0,0,0,1.1,1.662l4.953,2.861A4.917,4.917,0,0,0,266.227,195Zm.3-9.406a3.952,3.952,0,0,1,1.934.435l4.954,2.86a1.079,1.079,0,0,1,.633.85c0,.412-.371.872-.992,1.231l-4.234,2.444a5.147,5.147,0,0,1-4.543.208l-4.953-2.86a1.076,1.076,0,0,1-.633-.851c0-.411.371-.872.992-1.23l4.234-2.444A5.391,5.391,0,0,1,266.527,185.594Z" transform="translate(42.689 -70.02)" fill="#46ebed"/>
        <path id="Path_23000" data-name="Path 23000" d="M371.207,257.045a6.267,6.267,0,0,0,3.063-.774L406.6,237.606a2.515,2.515,0,0,0,1.462-2.043,1.943,1.943,0,0,0-1.1-1.663l-7.551-4.359a6,6,0,0,0-5.48.207L361.6,248.413a2.517,2.517,0,0,0-1.462,2.043,1.944,1.944,0,0,0,1.1,1.663l7.551,4.36A4.907,4.907,0,0,0,371.207,257.045ZM397,229.918a3.963,3.963,0,0,1,1.936.436l7.551,4.359a1.077,1.077,0,0,1,.633.851c0,.411-.371.872-.992,1.23L373.8,255.458a5.147,5.147,0,0,1-4.543.208l-7.551-4.359a1.078,1.078,0,0,1-.632-.851c0-.412.371-.872.992-1.23l32.327-18.665A5.393,5.393,0,0,1,397,229.918Z" transform="translate(-192.767 -70.02)" fill="#46ebed"/>
        <path id="Path_23001" data-name="Path 23001" d="M469.917,249.941a6.264,6.264,0,0,0,3.064-.775l16.064-9.274a2.517,2.517,0,0,0,1.462-2.043,1.943,1.943,0,0,0-1.1-1.663l-4.954-2.86a6,6,0,0,0-5.48.208l-16.064,9.275a2.515,2.515,0,0,0-1.462,2.043,1.943,1.943,0,0,0,1.1,1.663l4.954,2.859A4.9,4.9,0,0,0,469.917,249.941ZM482.048,233.7a3.957,3.957,0,0,1,1.934.436L488.936,237a1.076,1.076,0,0,1,.632.851c0,.412-.371.872-.992,1.23l-16.063,9.275a5.134,5.134,0,0,1-4.543.208l-4.954-2.86a1.076,1.076,0,0,1-.632-.85c0-.412.371-.872.992-1.231l16.063-9.274A5.39,5.39,0,0,1,482.048,233.7Z" transform="translate(-376.522 -70.02)" fill="#46ebed"/>
        <path id="Path_23002" data-name="Path 23002" d="M427.008,318.08a5.56,5.56,0,0,0,2.733-.664l88.8-51.267a1.981,1.981,0,0,0,0-3.7L360.065,170.957a5.963,5.963,0,0,0-5.468,0l-35.865,20.707a1.981,1.981,0,0,0,0,3.7L350.7,213.822a5.961,5.961,0,0,0,5.467,0l16.358-9.444a5.089,5.089,0,0,1,4.531,0l53.719,31.016a1.071,1.071,0,0,1,0,2.073l-86.413,49.891a5.1,5.1,0,0,1-4.53,0L249.145,235a1.072,1.072,0,0,1,0-2.074l45.093-26.034a5.089,5.089,0,0,1,4.531,0l52.27,30.178a1.072,1.072,0,0,1,0,2.074l-22.872,13.2.469.812,22.872-13.205a1.982,1.982,0,0,0,0-3.7l-52.271-30.178a5.963,5.963,0,0,0-5.467,0L248.676,232.11a1.982,1.982,0,0,0,0,3.7l90.691,52.36a5.963,5.963,0,0,0,5.468,0l86.413-49.891a1.98,1.98,0,0,0,0-3.7l-53.72-31.016a5.967,5.967,0,0,0-5.467,0L355.7,213.01a5.088,5.088,0,0,1-4.529,0L319.2,194.551a1.072,1.072,0,0,1,0-2.074l35.866-20.707a5.09,5.09,0,0,1,4.53,0l158.472,91.494a1.071,1.071,0,0,1,0,2.073l-88.8,51.267a5.1,5.1,0,0,1-4.531,0L402.6,303.817l-.469.812,22.148,12.787A5.563,5.563,0,0,0,427.008,318.08Z" transform="translate(-191.783 -70.02)" fill="#46ebed"/>
        <path id="Path_23003" data-name="Path 23003" d="M308.69,291.694l.711-.411,53.747-31.031a1.981,1.981,0,0,0,0-3.7l-7.325-4.229a5.967,5.967,0,0,0-5.467,0l-51.725,29.864a1.981,1.981,0,0,0,0,3.7Zm44.4-39.089a4.646,4.646,0,0,1,2.265.533l7.325,4.228a1.072,1.072,0,0,1,0,2.074L308.69,290.61l-9.591-5.536a1.072,1.072,0,0,1,0-2.073l51.726-29.863A4.639,4.639,0,0,1,353.089,252.6Z" transform="translate(-86.349 -70.02)" fill="#46ebed"/>
        <path id="Path_23004" data-name="Path 23004" d="M502.448,339.154a5.56,5.56,0,0,0,2.733-.664l70.249-40.558-.468-.813-70.249,40.559a5.09,5.09,0,0,1-4.53,0L377.957,267.11a1.071,1.071,0,0,1,0-2.073l14.332-8.274a5.087,5.087,0,0,1,4.53,0l19.166,11.064a1.072,1.072,0,0,1,0,2.074l-6.842,3.95a1.982,1.982,0,0,0,0,3.7l86.584,49.989a5.96,5.96,0,0,0,5.467,0l5.875-3.392a1.982,1.982,0,0,0,0-3.7L429.91,275.9a1.071,1.071,0,0,1,0-2.073l15.3-8.833a1.981,1.981,0,0,0,0-3.7L414.12,243.347l-.469.812,31.088,17.95a1.071,1.071,0,0,1,0,2.073l-15.3,8.833a1.981,1.981,0,0,0,0,3.7L506.6,321.261a1.071,1.071,0,0,1,0,2.073l-5.875,3.393a5.088,5.088,0,0,1-4.529,0l-86.584-49.99a1.072,1.072,0,0,1,0-2.074l6.842-3.949a1.982,1.982,0,0,0,0-3.7L397.288,255.95a5.969,5.969,0,0,0-5.468,0l-14.332,8.275a1.981,1.981,0,0,0,0,3.7L499.714,338.49A5.563,5.563,0,0,0,502.448,339.154Z" transform="translate(-376.218 -70.02)" fill="#46ebed"/>
        <path id="Path_23005" data-name="Path 23005" d="M486.392,313.853a6.266,6.266,0,0,0,3.064-.775l13.5-7.8a2.515,2.515,0,0,0,1.462-2.044,1.943,1.943,0,0,0-1.1-1.662l-60.833-35.122a6.01,6.01,0,0,0-5.48.208l-13.505,7.8a2.515,2.515,0,0,0-1.462,2.043,1.944,1.944,0,0,0,1.1,1.663l60.833,35.122A4.9,4.9,0,0,0,486.392,313.853Zm-46.309-47.022a3.971,3.971,0,0,1,1.936.435l60.833,35.122a1.077,1.077,0,0,1,.632.849c0,.412-.372.873-.993,1.232l-13.5,7.8a5.144,5.144,0,0,1-4.543.208l-60.833-35.122a1.079,1.079,0,0,1-.632-.851c0-.412.371-.872.992-1.23l13.505-7.8A5.39,5.39,0,0,1,440.083,266.831Z" transform="translate(-351.032 -70.02)" fill="#46ebed"/>
        <path id="Path_23006" data-name="Path 23006" d="M377.534,359.34a5.574,5.574,0,0,0,2.734-.664l59.284-34.228-.469-.812L379.8,357.863a5.093,5.093,0,0,1-4.53,0l-23.877-13.785a1.072,1.072,0,0,1,0-2.074L406.484,310.2a5.085,5.085,0,0,1,4.531,0l9.439,5.451a1.071,1.071,0,0,1,0,2.073l-38.579,22.273.469.813,38.579-22.274a1.982,1.982,0,0,0,0-3.7l-9.44-5.45a5.96,5.96,0,0,0-5.467,0l-55.093,31.808a1.981,1.981,0,0,0,0,3.7L374.8,358.676A5.574,5.574,0,0,0,377.534,359.34Z" transform="translate(-213.774 -70.02)" fill="#46ebed"/>
        <path id="Path_23007" data-name="Path 23007" d="M469.84,225.177a6.268,6.268,0,0,0,3.065-.775l4.233-2.444a2.513,2.513,0,0,0,1.462-2.042,1.944,1.944,0,0,0-1.1-1.663l-4.953-2.86a6,6,0,0,0-5.48.208l-4.234,2.444a2.517,2.517,0,0,0-1.462,2.043,1.943,1.943,0,0,0,1.1,1.663l4.954,2.859A4.9,4.9,0,0,0,469.84,225.177Zm.3-9.406a3.967,3.967,0,0,1,1.935.434l4.954,2.86a1.079,1.079,0,0,1,.632.851c0,.411-.371.871-.992,1.23l-4.233,2.444a5.131,5.131,0,0,1-4.543.208l-4.954-2.859a1.08,1.08,0,0,1-.632-.851c0-.412.371-.872.992-1.23l4.234-2.445A5.39,5.39,0,0,1,470.14,215.771Z" transform="translate(-364.538 -70.02)" fill="#46ebed"/>
        <path id="Path_23008" data-name="Path 23008" d="M454.347,234.121a6.277,6.277,0,0,0,3.065-.773l4.233-2.445a2.515,2.515,0,0,0,1.462-2.043,1.944,1.944,0,0,0-1.1-1.663l-4.954-2.86a6.01,6.01,0,0,0-5.48.208l-4.233,2.444a2.516,2.516,0,0,0-1.462,2.043,1.943,1.943,0,0,0,1.1,1.663l4.953,2.86A4.906,4.906,0,0,0,454.347,234.121Zm.3-9.407a3.982,3.982,0,0,1,1.936.435l4.953,2.861a1.077,1.077,0,0,1,.633.85c0,.412-.371.873-.993,1.231l-4.233,2.444a5.14,5.14,0,0,1-4.543.207l-4.953-2.859a1.079,1.079,0,0,1-.633-.851c0-.412.371-.872.992-1.23l4.234-2.444A5.38,5.38,0,0,1,454.647,224.714Z" transform="translate(-333.553 -70.02)" fill="#46ebed"/>
        <path id="Path_23009" data-name="Path 23009" d="M438.856,243.066a6.263,6.263,0,0,0,3.064-.774l4.233-2.444a2.515,2.515,0,0,0,1.462-2.044,1.942,1.942,0,0,0-1.1-1.662l-4.954-2.861a6,6,0,0,0-5.481.208l-4.233,2.445a2.515,2.515,0,0,0-1.462,2.044,1.941,1.941,0,0,0,1.1,1.662l4.953,2.859A4.91,4.91,0,0,0,438.856,243.066Zm.3-9.408a3.971,3.971,0,0,1,1.936.436l4.954,2.86a1.077,1.077,0,0,1,.632.85c0,.412-.371.873-.992,1.231l-4.234,2.445a5.143,5.143,0,0,1-4.543.207l-4.953-2.86a1.077,1.077,0,0,1-.633-.85c0-.411.371-.872.992-1.231l4.234-2.444A5.38,5.38,0,0,1,439.155,233.658Z" transform="translate(-302.569 -70.02)" fill="#46ebed"/>
        <path id="Path_23010" data-name="Path 23010" d="M485.409,234.166a6.274,6.274,0,0,0,3.064-.774l4.234-2.445a2.517,2.517,0,0,0,1.462-2.043,1.944,1.944,0,0,0-1.1-1.663l-4.953-2.859a6,6,0,0,0-5.481.207l-4.233,2.444a2.516,2.516,0,0,0-1.462,2.044,1.942,1.942,0,0,0,1.1,1.662l4.953,2.861A4.9,4.9,0,0,0,485.409,234.166Zm.3-9.407a3.963,3.963,0,0,1,1.936.435l4.953,2.86a1.079,1.079,0,0,1,.633.85c0,.413-.371.872-.992,1.231L488,232.579a5.139,5.139,0,0,1-4.542.208l-4.954-2.86a1.076,1.076,0,0,1-.632-.851c0-.411.371-.872.992-1.23L483.1,225.4A5.4,5.4,0,0,1,485.708,224.759Z" transform="translate(-395.676 -70.02)" fill="#46ebed"/>
        <path id="Path_23011" data-name="Path 23011" d="M454.424,252.054a6.264,6.264,0,0,0,3.065-.774l4.233-2.444a2.512,2.512,0,0,0,1.462-2.042,1.945,1.945,0,0,0-1.1-1.664l-4.954-2.859a6,6,0,0,0-5.48.208l-4.234,2.444a2.515,2.515,0,0,0-1.461,2.043,1.943,1.943,0,0,0,1.1,1.663l4.953,2.859A4.914,4.914,0,0,0,454.424,252.054Zm.3-9.407a3.974,3.974,0,0,1,1.936.436l4.954,2.86a1.077,1.077,0,0,1,.631.851c0,.411-.371.871-.992,1.229l-4.233,2.445a5.147,5.147,0,0,1-4.543.208l-4.953-2.859a1.081,1.081,0,0,1-.632-.851c0-.412.37-.872.991-1.231l4.234-2.444A5.38,5.38,0,0,1,454.724,242.647Z" transform="translate(-333.707 -70.02)" fill="#46ebed"/>
      </g>
    </g>
    <ellipse id="Ellipse_221" data-name="Ellipse 221" cx="116.667" cy="67.358" rx="116.667" ry="67.358" transform="translate(-349.478 286.329)" opacity="0.4" fill="url(#radial-gradient)" style="mix-blend-mode: lighten;isolation: isolate"/>
    <ellipse id="Ellipse_220" data-name="Ellipse 220" cx="209.167" cy="120.858" rx="209.167" ry="120.858" transform="translate(-263.443 116.614)" opacity="0.4" fill="url(#radial-gradient-2)" style="mix-blend-mode: lighten;isolation: isolate"/>
    <path id="Path_22964" data-name="Path 22964" d="M-115.962,242l-60.548-34.958c-6.955-4.015-6.083-11.03,1.948-15.668h0c8.032-4.636,20.182-5.139,27.137-1.124l60.548,34.958c6.957,4.017,6.083,11.03-1.948,15.668h0C-96.856,245.512-109,246.016-115.962,242Z" transform="translate(65.063 31.827)" fill="#0c0f38" opacity="0.6"/>
    <path id="Path_22965" data-name="Path 22965" d="M-98.463,250.229c-5.069,0-9.911-1.021-13.525-3.108l-67.98-39.247c-3.59-2.075-5.568-4.97-5.568-8.153,0-3.8,2.826-7.617,7.755-10.464,9.165-5.29,23.1-5.86,31.06-1.263l67.981,39.249c3.59,2.075,5.569,4.97,5.568,8.153,0,3.8-2.826,7.616-7.756,10.462A36.027,36.027,0,0,1-98.463,250.229Zm-61.784-64.177a34.819,34.819,0,0,0-16.941,4.231c-4.553,2.629-7.163,6.068-7.163,9.438,0,2.743,1.767,5.275,4.976,7.128L-111.4,246.1c7.633,4.409,21.037,3.841,29.875-1.263,4.553-2.627,7.165-6.067,7.165-9.436,0-2.743-1.767-5.275-4.976-7.128l-67.981-39.249A26.371,26.371,0,0,0-160.247,186.052Z" transform="translate(62.724 30.394)" fill="url(#linear-gradient)"/>
    <path id="Path_22966" data-name="Path 22966" d="M-232.091,314.775l-60.549-34.959c-6.955-4.015-6.083-11.03,1.948-15.666h0c8.032-4.637,20.182-5.141,27.137-1.126l60.548,34.958c6.957,4.017,6.083,11.03-1.948,15.668h0C-212.985,318.286-225.134,318.79-232.091,314.775Z" transform="translate(2.339 71.134)" fill="#0c0f38" opacity="0.6"/>
    <path id="Path_22967" data-name="Path 22967" d="M-214.592,323c-5.069,0-9.911-1.021-13.525-3.106l-67.98-39.249c-3.59-2.075-5.568-4.968-5.568-8.153,0-3.8,2.826-7.617,7.755-10.464,9.165-5.289,23.1-5.859,31.06-1.263l67.981,39.249c3.59,2.075,5.569,4.97,5.568,8.153,0,3.8-2.826,7.617-7.756,10.462A36.027,36.027,0,0,1-214.592,323Zm-61.784-64.177a34.819,34.819,0,0,0-16.941,4.231c-4.553,2.629-7.163,6.07-7.163,9.438,0,2.743,1.767,5.275,4.976,7.128l67.98,39.247c7.633,4.409,21.037,3.843,29.875-1.263,4.553-2.627,7.165-6.067,7.165-9.436,0-2.743-1.767-5.275-4.976-7.128l-67.981-39.249A26.37,26.37,0,0,0-276.376,258.826Z" transform="translate(0 69.701)" fill="url(#linear-gradient-2)"/>
    <g id="Group_3655" data-name="Group 3655" transform="translate(-128.861 128.614)">
      <path id="Path_22968" data-name="Path 22968" d="M-85.568,253.685l-8.058-1.494-74.679-43.336-7.8-7.168-7.8-11.455-4.168-11.805-1.033-9.909,1.9-7.59,4.428-5.973,6.324-1.511,32.279-17.581s37.715,25.908,39.261,26.47,25.86,50.6,25.86,50.6l5.341,33.732-6,5.5Z" transform="translate(189.657 -124.698)" fill="#4a0e91"/>
      <path id="Path_22969" data-name="Path 22969" d="M-42.81,224.631c0-12.923-9.073-28.639-20.265-35.1a19.583,19.583,0,0,0-7.693-2.692C-71.92,175.217-80,162.061-89.8,156.4a21.884,21.884,0,0,0-3.937-1.8c-2.971-9.506-9.712-18.839-17.557-23.368-5.528-3.191-10.505-3.362-14-1.063v0l-14.24,7.788a13.917,13.917,0,0,0-9.8.8l.009-.025-.3.163-.032.017L-184.8,157.924l8.973-.2,10.915,4.123.8-7.074,4.359-4.919,3.7-1.586,1.357-.148,5.614,1.944c.131-.769,1.331-.4,1.788-.4,2.811,1.686,4.5,4.5,6.746,6.185,6.747,4.5,6.747,14.793,12.369,18.728,9,6.746,17.428,16.128,21.925,26.247.286.571-.009,1-.442,1.352l.912,5.067,7.918,2.155,7.5,6.043,6.84,8.668,2.343,5.293,2.654,7.262.625,7.308-.625,5.575-4.978,8.053,34.3-19.617.012-.008-.306.151C-45.4,236.218-42.81,231.525-42.81,224.631Z" transform="translate(191.982 -128.614)" fill="url(#linear-gradient-3)"/>
      <g id="Group_3651" data-name="Group 3651" transform="translate(7.18 8.915)">
        <path id="Path_22970" data-name="Path 22970" d="M-145.15,134.4a12.159,12.159,0,0,0-4.189,1.223l.009-.025-.3.163-.032.017L-184.8,154.8l1.968-.045c.761-.585,1.52-1.314,2.281-1.264l34.5-18.669.032-.017.3-.163-.009.025C-145.541,134.568-145.344,134.489-145.15,134.4Z" transform="translate(184.802 -134.403)" fill="#d4088c"/>
      </g>
      <g id="Group_3652" data-name="Group 3652" transform="translate(108.465 60.063)">
        <path id="Path_22971" data-name="Path 22971" d="M-78.331,203.567c0-12.923-9.073-28.639-20.265-35.1-.545-.316-1.086-.6-1.62-.855,11.348,6.6,20.533,22.538,20.533,35.652,0,7.011-2.634,11.783-6.812,13.727l.313-.152-.014.008-31.971,18.283-.87,1.406,34.3-19.617.012-.008-.306.151C-80.92,215.152-78.331,210.461-78.331,203.567Z" transform="translate(119.038 -167.613)" fill="#6ee8fc"/>
      </g>
      <path id="Path_22972" data-name="Path 22972" d="M-118.784,193.473c-4.5-10.119-11.619-22.862-22.862-26.328-1.686-5.061-4.685-14.149-11.432-18.646-2.249-1.686-3.935-4.5-6.746-6.185-.457,0-1.657-.371-1.788.4l.166.057c.071,15.244,10.764,33.716,23.946,41.328l18.237,10.528.037.2C-118.793,194.471-118.5,194.045-118.784,193.473Z" transform="translate(204.508 -121.263)" fill="#35047c"/>
      <path id="Path_22973" data-name="Path 22973" d="M-95.031,202.217a19.725,19.725,0,0,0-7.745-2.711c-1.161-11.7-9.293-24.944-19.159-30.641a21.925,21.925,0,0,0-3.964-1.816c-2.989-9.569-9.775-18.965-17.673-23.525-10.65-6.148-19.284-1.178-19.307,11.1q-1.22-.848-2.473-1.574c-13.316-7.687-24.111-1.455-24.111,13.92s10.795,34.071,24.111,41.759l70.322,40.6c11.266,6.505,20.4,1.232,20.4-11.777S-83.765,208.721-95.031,202.217Z" transform="translate(189.464 -121.985)" fill="url(#linear-gradient-4)"/>
      <g id="Group_3653" data-name="Group 3653" transform="translate(92.566 79.261)">
        <path id="Path_22974" data-name="Path 22974" d="M-127.494,181.048c-.63-.362-1.252-.679-1.867-.97,11.246,6.526,20.822,23.314,20.822,36.305,0,8.843-4.225,14.1-10.467,14.523,7.023.333,11.911-5.016,11.911-14.523C-107.094,203.374-116.228,187.554-127.494,181.048Z" transform="translate(129.361 -180.078)" fill="#6ee8fc"/>
      </g>
      <g id="Group_3654" data-name="Group 3654" transform="translate(0 27.798)">
        <path id="Path_22975" data-name="Path 22975" d="M-188.529,164.3c0-12.364,6.9-18.857,16.492-17.122-10.06-2.46-17.427,3.975-17.427,16.67,0,13.763,8.659,30.163,20.025,38.97C-180.36,193.708-188.529,177.757-188.529,164.3Z" transform="translate(189.464 -146.663)" fill="#d4088c"/>
      </g>
    </g>
    <g id="Group_3656" data-name="Group 3656" transform="translate(-99.966 186.089)">
      <path id="Path_22976" data-name="Path 22976" d="M-160.2,175.741c0,3.348-2.35,4.705-5.25,3.031a11.6,11.6,0,0,1-5.249-9.093c0-3.347,2.35-4.7,5.249-3.029A11.6,11.6,0,0,1-160.2,175.741Z" transform="translate(170.702 -165.932)" fill="#6de0f6"/>
      <path id="Path_22977" data-name="Path 22977" d="M-162.854,177.472a11.6,11.6,0,0,1-5.249-9.093,4.583,4.583,0,0,1,.613-2.432c-1.888-.173-3.213,1.218-3.213,3.732a11.6,11.6,0,0,0,5.249,9.093c2.025,1.169,3.761.835,4.637-.6A5.034,5.034,0,0,1-162.854,177.472Z" transform="translate(170.702 -165.932)" fill="#267fe5"/>
      <path id="Path_22978" data-name="Path 22978" d="M-149.734,181.786c0,3.348-2.35,4.705-5.249,3.031a11.6,11.6,0,0,1-5.25-9.093c0-3.348,2.35-4.705,5.25-3.031A11.6,11.6,0,0,1-149.734,181.786Z" transform="translate(176.357 -162.668)" fill="#6de0f6"/>
      <path id="Path_22979" data-name="Path 22979" d="M-139.264,187.83c0,3.348-2.35,4.705-5.25,3.031a11.6,11.6,0,0,1-5.249-9.093c0-3.347,2.35-4.7,5.249-3.029A11.6,11.6,0,0,1-139.264,187.83Z" transform="translate(182.012 -159.403)" fill="#6de0f6"/>
      <path id="Path_22980" data-name="Path 22980" d="M-152.383,183.52a11.6,11.6,0,0,1-5.25-9.093,4.571,4.571,0,0,1,.615-2.433c-1.888-.171-3.214,1.22-3.214,3.733a11.6,11.6,0,0,0,5.25,9.093c2.024,1.167,3.759.833,4.636-.6A5.046,5.046,0,0,1-152.383,183.52Z" transform="translate(176.357 -162.666)" fill="#267fe5"/>
      <path id="Path_22981" data-name="Path 22981" d="M-141.915,189.567a11.6,11.6,0,0,1-5.249-9.093,4.583,4.583,0,0,1,.613-2.432c-1.888-.172-3.213,1.218-3.213,3.732a11.6,11.6,0,0,0,5.249,9.093c2.024,1.169,3.761.835,4.636-.6A5.036,5.036,0,0,1-141.915,189.567Z" transform="translate(182.012 -159.399)" fill="#267fe5"/>
    </g>
    <g id="Group_3658" data-name="Group 3658" transform="translate(-452.334 -69.558)">
      <path id="Path_22982" data-name="Path 22982" d="M435.217,50.3H350.3V231.317l.007,0a2.969,2.969,0,0,0,1.725,2.5l36.081,20.83c2.565,1.481,7.046,1.3,10.008-.413l34.64-20a4.25,4.25,0,0,0,2.438-3.093l.014-.007Z" transform="translate(0 0)" opacity="0.25" fill="url(#linear-gradient-5)" style="mix-blend-mode: lighten;isolation: isolate"/>
      <g id="Group_3657" data-name="Group 3657" transform="translate(367.011 63.201)">
        <path id="Path_22983" data-name="Path 22983" d="M364.689,124.964a3.493,3.493,0,1,1-3.493-3.493A3.494,3.494,0,0,1,364.689,124.964Z" transform="translate(-357.704 26.315)" fill="#6de0f6"/>
        <circle id="Ellipse_222" data-name="Ellipse 222" cx="5.966" cy="5.966" r="5.966" transform="translate(23.865 121.884)" fill="#6de0f6"/>
        <path id="Path_22984" data-name="Path 22984" d="M370.049,111.811a1.533,1.533,0,1,1-1.533-1.533A1.533,1.533,0,0,1,370.049,111.811Z" transform="translate(-346.034 12.237)" fill="#6de0f6"/>
        <circle id="Ellipse_223" data-name="Ellipse 223" cx="2.983" cy="2.983" r="2.983" transform="translate(45.547 91.107)" fill="#6de0f6"/>
        <circle id="Ellipse_224" data-name="Ellipse 224" cx="2.109" cy="2.109" r="2.109" transform="translate(30.705 66.66)" fill="#6de0f6"/>
        <path id="Path_22985" data-name="Path 22985" d="M366.75,81.446a3.822,3.822,0,1,1-3.822-3.82A3.822,3.822,0,0,1,366.75,81.446Z" transform="translate(-355.942 -28.83)" fill="#6de0f6"/>
        <circle id="Ellipse_225" data-name="Ellipse 225" cx="2.13" cy="2.13" r="2.13" transform="translate(16.066 18.51)" fill="#6de0f6"/>
        <circle id="Ellipse_226" data-name="Ellipse 226" cx="2.509" cy="2.509" r="2.509" transform="translate(31.785 32.319)" fill="#6de0f6"/>
        <path id="Path_22986" data-name="Path 22986" d="M376.183,69.794a1.212,1.212,0,1,1-1.212-1.212A1.213,1.213,0,0,1,376.183,69.794Z" transform="translate(-337.513 -40.205)" fill="#6de0f6"/>
        <path id="Path_22987" data-name="Path 22987" d="M385.716,59.517a3.505,3.505,0,1,1-3.5-3.5A3.5,3.5,0,0,1,385.716,59.517Z" transform="translate(-331.289 -56.013)" fill="#6de0f6"/>
      </g>
    </g>
    <line id="Line_24" data-name="Line 24" y1="87" x2="153" transform="translate(-238.165 257.114)" fill="none" stroke="#fff" stroke-linecap="round" stroke-width="3" stroke-dasharray="4 8"/>
  </g>
</svg>
